<mxfile host="app.diagrams.net" modified="2024-01-12T21:57:33.858Z" agent="Mozilla/5.0 (Macintosh; Intel Mac OS X 10_15_7) AppleWebKit/537.36 (KHTML, like Gecko) Chrome/120.0.0.0 Safari/537.36" etag="peZLrUuRlHL8UUnVVS_h" version="22.1.18" type="github">
  <diagram name="Page-1" id="9AHbF1EU9OmFgdpNVleD">
    <mxGraphModel dx="803" dy="751" grid="1" gridSize="10" guides="1" tooltips="1" connect="1" arrows="1" fold="1" page="1" pageScale="1" pageWidth="850" pageHeight="1100" math="0" shadow="0">
      <root>
        <mxCell id="0" />
        <mxCell id="1" parent="0" />
        <mxCell id="JS6CG7C1Ou-KLF0gEZJj-5" value="DB&lt;br&gt;Server" style="shape=cylinder3;whiteSpace=wrap;html=1;boundedLbl=1;backgroundOutline=1;size=15;" vertex="1" parent="1">
          <mxGeometry x="280" y="40" width="80" height="80" as="geometry" />
        </mxCell>
        <mxCell id="JS6CG7C1Ou-KLF0gEZJj-6" value="F5&lt;br&gt;Auth" style="whiteSpace=wrap;html=1;aspect=fixed;" vertex="1" parent="1">
          <mxGeometry x="40" y="40" width="80" height="80" as="geometry" />
        </mxCell>
        <mxCell id="JS6CG7C1Ou-KLF0gEZJj-7" value="User&lt;br&gt;API" style="whiteSpace=wrap;html=1;aspect=fixed;" vertex="1" parent="1">
          <mxGeometry x="160" y="40" width="80" height="80" as="geometry" />
        </mxCell>
        <mxCell id="JS6CG7C1Ou-KLF0gEZJj-8" value="AWS&lt;br&gt;Buckets" style="shape=cylinder3;whiteSpace=wrap;html=1;boundedLbl=1;backgroundOutline=1;size=15;" vertex="1" parent="1">
          <mxGeometry x="395" y="40" width="85" height="80" as="geometry" />
        </mxCell>
        <mxCell id="JS6CG7C1Ou-KLF0gEZJj-9" value="Video&lt;br&gt;Renderer" style="shape=tapeData;whiteSpace=wrap;html=1;perimeter=ellipsePerimeter;" vertex="1" parent="1">
          <mxGeometry x="520" y="40" width="80" height="80" as="geometry" />
        </mxCell>
        <mxCell id="JS6CG7C1Ou-KLF0gEZJj-13" value="" style="swimlane;startSize=0;" vertex="1" parent="1">
          <mxGeometry width="640" height="160" as="geometry" />
        </mxCell>
        <mxCell id="JS6CG7C1Ou-KLF0gEZJj-14" value="RB Services" style="whiteSpace=wrap;html=1;" vertex="1" parent="JS6CG7C1Ou-KLF0gEZJj-13">
          <mxGeometry width="120" height="20" as="geometry" />
        </mxCell>
      </root>
    </mxGraphModel>
  </diagram>
</mxfile>
